<?xml version="1.0" encoding="UTF-8"?>
<svg xmlns="http://www.w3.org/2000/svg" version="1.1" viewBox="0 0 71 54.1">
  <defs>
    <style>
      .cls-1 {
        fill: #fff;
      }
    </style>
  </defs>
  <!-- Generator: Adobe Illustrator 28.6.0, SVG Export Plug-In . SVG Version: 1.2.0 Build 709)  -->
  <g>
    <g id="Layer_1">
      <path class="cls-1" d="M60.1,4.5C55.6,2.4,50.7.9,45.7,0c0,0-.2,0-.2.1-.6,1.1-1.3,2.6-1.8,3.7-5.5-.8-10.9-.8-16.2,0-.5-1.2-1.2-2.6-1.8-3.7,0,0-.1-.1-.2-.1-5.1.9-9.9,2.4-14.5,4.5,0,0,0,0,0,0C1.6,18.3-.9,31.7.3,45c0,0,0,.1,0,.2,6.1,4.5,12,7.2,17.7,9,0,0,.2,0,.2,0,1.4-1.9,2.6-3.8,3.6-5.9,0-.1,0-.3-.1-.3-1.9-.7-3.8-1.6-5.5-2.6-.1,0-.2-.3,0-.4.4-.3.7-.6,1.1-.9,0,0,.2,0,.2,0,11.6,5.3,24.2,5.3,35.7,0,0,0,.2,0,.2,0,.4.3.7.6,1.1.9.1,0,.1.3,0,.4-1.8,1-3.6,1.9-5.5,2.6-.1,0-.2.2-.1.3,1.1,2.1,2.3,4,3.6,5.9,0,0,.2.1.2,0,5.8-1.8,11.7-4.5,17.8-9,0,0,0,0,0-.2,1.5-15.3-2.5-28.6-10.5-40.4,0,0,0,0,0,0ZM23.7,36.9c-3.5,0-6.4-3.2-6.4-7.2s2.8-7.2,6.4-7.2,6.4,3.2,6.4,7.2c0,3.9-2.8,7.2-6.4,7.2ZM47.3,36.9c-3.5,0-6.4-3.2-6.4-7.2s2.8-7.2,6.4-7.2,6.4,3.2,6.4,7.2c0,3.9-2.8,7.2-6.4,7.2Z"/>
    </g>
  </g>
</svg>