<?xml version="1.0" encoding="UTF-8"?>
<svg id="Layer_1" xmlns="http://www.w3.org/2000/svg" viewBox="0 0 235.89 255.94">
  <g id="Layer_1-2" data-name="Layer_1">
    <g>
      <path d="M83.26,55.12c-33.41-6.04-59.87.26-70.41,18.5-7.84,13.62-5.65,31.61,5.4,50.88.9,1.67,2.96,2.31,4.63,1.41,1.67-.9,2.31-2.96,1.41-4.63h0c-10.02-17.35-11.95-32.89-5.4-44.07,8.74-15.16,32.25-20.81,63.21-15.16,1.93.26,3.6-.9,3.98-2.83.26-1.8-.9-3.6-2.7-3.98l-.13-.13ZM35.72,148.01c13.49,14.9,31.09,28.78,51.14,40.34,48.44,28.01,100.09,35.46,125.53,18.12,1.54-1.03,2.06-3.21,1.03-4.75s-3.21-2.06-4.75-1.03h0c-22.74,15.55-71.82,8.35-118.2-18.37-19.4-11.18-36.36-24.67-49.47-39.06-1.28-1.41-3.47-1.54-4.88-.26-1.41,1.28-1.54,3.47-.26,4.88h0l-.13.13Z"/>
      <path d="M204.16,143.9c21.84-25.82,29.55-51.78,19.02-70.02-7.71-13.36-24.03-20.43-45.74-20.69-1.93,0-3.47,1.54-3.47,3.47,0,1.8,1.54,3.34,3.34,3.47,19.53.26,33.66,6.3,39.96,17.35,8.74,15.16,1.93,38.29-18.24,62.19-1.28,1.41-1.03,3.6.39,4.88s3.6,1.03,4.88-.39h0l-.13-.26ZM148.01,56.28c-19.79,4.24-40.86,12.46-61.03,24.15C37,109.34,4.37,151.87,8.87,182.83c.26,1.93,1.93,3.21,3.85,2.96s3.21-1.93,2.96-3.85h0c-3.98-27.37,26.85-67.84,74.78-95.46,19.66-11.31,39.96-19.4,59.1-23.38,1.8-.39,3.08-2.18,2.7-3.98s-2.18-3.08-3.98-2.7h0l-.26-.13Z"/>
      <path d="M66.94,204.29c11.43,31.99,30.19,51.65,51.14,51.65s29.55-10.41,40.6-28.91c1.03-1.67.51-3.73-1.16-4.75-1.67-1.03-3.73-.51-4.75,1.16h0c-9.89,16.57-22.23,25.57-34.69,25.57s-34.18-17.6-44.71-47.02c-.64-1.8-2.57-2.7-4.37-2.18-1.8.64-2.7,2.57-2.18,4.37v.13h.13ZM171.4,197.99c5.91-18.89,9.12-40.73,9.12-63.47,0-56.79-19.91-105.74-48.18-118.2-1.8-.77-3.73,0-4.5,1.8-.77,1.67,0,3.6,1.67,4.37,25.18,11.18,44.07,57.69,44.07,112.04s-3.08,43.17-8.74,61.41c-.64,1.8.39,3.73,2.18,4.37s3.73-.39,4.37-2.18h0v-.13ZM235.89,194.65c0-8.99-7.32-16.45-16.45-16.45s-16.45,7.32-16.45,16.45,7.32,16.45,16.45,16.45,16.45-7.32,16.45-16.45ZM229.08,194.65c0,5.27-4.24,9.51-9.51,9.51s-9.51-4.24-9.51-9.51,4.24-9.51,9.51-9.51,9.51,4.24,9.51,9.51ZM16.45,210.97c8.99,0,16.45-7.32,16.45-16.45s-7.32-16.45-16.45-16.45S0,185.4,0,194.52s7.32,16.45,16.45,16.45ZM16.45,204.16c-5.27,0-9.51-4.24-9.51-9.51s4.24-9.51,9.51-9.51,9.51,4.24,9.51,9.51-4.24,9.51-9.51,9.51Z"/>
      <path d="M118.08,32.89c8.99,0,16.45-7.32,16.45-16.45S127.2,0,118.08,0s-16.45,7.32-16.45,16.45,7.32,16.45,16.45,16.45ZM118.08,26.08c-5.27,0-9.51-4.24-9.51-9.51s4.24-9.51,9.51-9.51,9.51,4.24,9.51,9.51-4.24,9.51-9.51,9.51ZM120.64,146.08c-6.42,1.41-12.72-2.7-14.13-9.12s2.7-12.72,9.12-14.13c6.42-1.41,12.72,2.7,14.13,9.12,1.41,6.42-2.7,12.72-9.12,14.13Z"/>
    </g>
  </g>
</svg>