<?xml version="1.0" encoding="UTF-8"?>
<svg xmlns="http://www.w3.org/2000/svg" version="1.1" viewBox="0 0 384 384">
  <defs>
    <style>
      .cls-1 {
        fill-rule: evenodd;
      }
    </style>
  </defs>
  <!-- Generator: Adobe Illustrator 28.6.0, SVG Export Plug-In . SVG Version: 1.2.0 Build 709)  -->
  <g>
    <g id="Layer_1">
      <g id="Layer_1-2" data-name="Layer_1">
        <g>
          <path class="cls-1" d="M141.6,296.9s-14.6,8.6,10.5,11.4c30.4,3.5,46,3,79.5-3.4,0,0,8.8,5.5,21.1,10.3-75.2,32.3-170.1-1.9-111.1-18.4h0Z"/>
          <path class="cls-1" d="M132.5,254.9s-16.4,12.2,8.7,14.8c32.5,3.3,58.1,3.6,102.6-5,0,0,6.2,6.3,15.7,9.6-90.8,26.5-192.1,2.1-127-19.5h0Z"/>
          <path class="cls-1" d="M209.9,183.6c18.5,21.4-4.8,40.5-4.8,40.5,0,0,47-24.2,25.4-54.7-20.1-28.3-35.7-42.4,48.1-90.9,0,0-131.5,32.8-68.7,105.1h0Z"/>
          <path class="cls-1" d="M309.3,328.1s10.9,8.9-12,15.9c-43.4,13.1-180.6,17.1-218.6.6-13.7-5.9,12-14.2,20-16,8.5-1.9,13.2-1.5,13.2-1.5-15.2-10.7-98.4,21-42.3,30.2,153.3,24.9,279.3-11.2,239.6-29.2h.1Z"/>
          <path class="cls-1" d="M148.7,211.4s-69.8,16.6-24.7,22.6c19,2.5,56.9,2,92.4-1,28.8-2.4,57.9-7.6,57.9-7.6,0,0-10.1,4.4-17.5,9.4-70.9,18.6-207.7,9.9-168.3-9.1,33.4-16.1,60.4-14.3,60.4-14.3h-.2Z"/>
          <path class="cls-1" d="M273.8,281.3c72-37.4,38.8-73.4,15.5-68.6-5.7,1.2-8.3,2.2-8.3,2.2,0,0,2.1-3.3,6.2-4.7,46-16.2,81.4,47.7-14.9,73,0,0,1.1-1,1.4-1.9h0Z"/>
          <path class="cls-1" d="M230.5,0s39.9,40-37.9,101.3c-62.3,49.2-14.2,77.3,0,109.4-36.4-32.8-63.1-61.8-45.1-88.6C173.8,82.6,246.5,63.5,230.5.1h0Z"/>
          <path class="cls-1" d="M155.8,382.8c69.1,4.4,175.4-2.4,177.8-35.2,0,0-4.8,12.4-57.1,22.2-59,11.1-131.8,9.8-174.9,2.6,0,0,8.8,7.3,54.3,10.2h0Z"/>
        </g>
      </g>
    </g>
  </g>
</svg>