<?xml version="1.0" encoding="UTF-8"?>
<svg xmlns="http://www.w3.org/2000/svg" version="1.1" viewBox="0 0 630 630">
  <!-- Generator: Adobe Illustrator 28.6.0, SVG Export Plug-In . SVG Version: 1.2.0 Build 709)  -->
  <g>
    <g id="Layer_1">
      <g id="Layer_1-2" data-name="Layer_1">
        <path d="M391.4,404.9c19.2,31.4,44.2,54.3,88.3,54.3s60.7-18.6,60.7-44.2-24.3-41.5-65.1-59.4l-22.4-9.6c-64.6-27.5-107.6-61.9-107.6-134.8s51.1-118.3,131.1-118.3,97.8,19.8,127.3,71.7l-69.7,44.7c-15.3-27.5-31.9-38.3-57.6-38.3s-42.8,16.7-42.8,38.3,16.7,37.8,55,54.3l22.4,9.6c76.1,32.6,119,65.9,119,140.7s-63.3,124.8-148.3,124.8-136.8-39.6-163.1-91.5l72.8-42.3h0ZM75.1,412.7c14,25,26.8,46,57.6,46s47.9-11.5,47.9-56.2V98.1h89.6v305.6c0,92.6-54.3,134.8-133.7,134.8S23.3,501.4,2.3,456.8l72.9-44.2h0Z"/>
      </g>
    </g>
  </g>
</svg>