<?xml version="1.0" encoding="UTF-8"?>
<svg xmlns="http://www.w3.org/2000/svg" version="1.1" viewBox="0 0 128 128">
  <!-- Generator: Adobe Illustrator 28.6.0, SVG Export Plug-In . SVG Version: 1.2.0 Build 709)  -->
  <g>
    <g id="Layer_1">
      <g id="Layer_1-2" data-name="Layer_1">
        <g>
          <path d="M64,128c-1.9,0-3.8-.5-5.5-1.3l-17.6-9.3c-2.6-1.3-1.4-1.8-.5-2,3.5-1.1,4.2-1.4,8-3.2.4-.2.9-.1,1.3,0l13.5,7.1c.5.2,1.2.2,1.6,0l52.8-27.1c.5-.2.8-.7.8-1.3v-54.1c0-.6-.3-1-.8-1.3l-52.8-27c-.5-.2-1.1-.2-1.6,0L10.4,35.6c-.5.2-.8.8-.8,1.3v54.1c0,.5.3,1,.8,1.3l14.5,7.4c7.9,3.5,12.7-.6,12.7-4.8v-53.4c0-.8.7-1.4,1.5-1.4h6.7c.8,0,1.5.6,1.5,1.4v53.5c0,9.3-5.7,14.6-15.7,14.6s-5.5,0-12.2-3l-13.9-7.1c-3.4-1.8-5.5-5-5.5-8.5v-54.1c0-3.5,2.1-6.8,5.5-8.5L58.5,1.3c3.4-1.7,7.8-1.7,11.1,0l52.8,27.1c3.4,1.8,5.5,5,5.5,8.5v54.1c0,3.5-2.1,6.8-5.5,8.5l-52.8,27.1c-1.7.9-3.6,1.3-5.6,1.3"/>
          <path d="M80.3,90.7c-23.1,0-28-9.4-28-17.3s.7-1.4,1.5-1.4h6.8c.8,0,1.4.5,1.5,1.1,1,6.2,4.1,9.3,18.1,9.3s15.9-2.2,15.9-7.5-1.4-5.3-18.7-6.8c-14.5-1.3-23.4-4.1-23.4-14.4s9-15.1,24.1-15.1,25.3,5.2,26.4,16.4c0,.4-.1.8-.4,1-.3.3-.7.4-1.1.4h-6.9c-.7,0-1.4-.5-1.5-1-1.7-6.5-5.6-8.6-16.5-8.6s-13.6,3.8-13.6,6.6,1.7,4.4,18.1,6.3c16.2,1.9,24,4.6,24,14.8s-9.6,16.1-26.4,16.1"/>
        </g>
      </g>
    </g>
  </g>
</svg>