<?xml version="1.0" encoding="UTF-8"?>
<svg xmlns="http://www.w3.org/2000/svg" version="1.1" xmlns:cc="http://creativecommons.org/ns#" xmlns:dc="http://purl.org/dc/elements/1.1/" xmlns:inkscape="http://www.inkscape.org/namespaces/inkscape" xmlns:rdf="http://www.w3.org/1999/02/22-rdf-syntax-ns#" xmlns:sodipodi="http://sodipodi.sourceforge.net/DTD/sodipodi-0.dtd" xmlns:svg="http://www.w3.org/2000/svg" viewBox="0 0 128 128">
  <!-- Generator: Adobe Illustrator 28.6.0, SVG Export Plug-In . SVG Version: 1.2.0 Build 709)  -->
  <g>
    <g id="Layer_1">
      <g id="svg2">
        <sodipodi:namedview id="base" width="210mm" height="40mm" bordercolor="#666666" borderopacity="1.0" gridtolerance="10.0" guidetolerance="10.0" inkscape:current-layer="svg2" inkscape:cx="91.558698" inkscape:cy="47.9926" inkscape:deskcolor="#d1d1d1" inkscape:document-units="pt" inkscape:pagecheckerboard="0" inkscape:pageopacity="0.0" inkscape:pageshadow="2" inkscape:showpageshadow="2" inkscape:window-height="2080" inkscape:window-maximized="0" inkscape:window-width="1976" inkscape:window-x="1092" inkscape:window-y="72" inkscape:zoom="2.1461642" objecttolerance="10.0" pagecolor="#ffffff" showgrid="false" units="mm"/>
        <path id="path1948" d="M63.3,0c-5.3,0-10.3.4-14.7,1.2-13.1,2.3-15.4,7-15.4,15.8v11.7h30.9v3.9H21.5c-9,0-16.8,5.4-19.3,15.5-2.8,11.7-2.9,18.8,0,31.1,2.2,9.1,7.4,15.5,16.4,15.5h10.6v-13.9c0-10,8.8-19,19.3-19h30.9c8.6,0,15.4-7,15.4-15.5v-29.2c0-8.3-7.1-14.4-15.4-15.8-5.3-1-10.7-1.4-16-1.4ZM46.6,9.4c3.2,0,5.8,2.6,5.8,5.8s-2.6,5.8-5.8,5.8-5.8-2.6-5.8-5.8,2.6-5.8,5.8-5.8Z"/>
        <path id="path1950" d="M98.7,32.6v13.6c0,10.5-9,19.4-19.3,19.4h-30.9c-8.5,0-15.4,7.2-15.4,15.5v29c0,8.3,7.2,13.2,15.4,15.5,9.7,2.9,19.2,3.3,30.9,0,7.8-2.2,15.4-6.7,15.4-15.5v-11.7h-30.9v-3.9h46.3c9,0,12.4-6.2,15.4-15.5,3.2-9.6,3.1-18.7,0-31.1-2.2-8.8-6.4-15.5-15.4-15.5h-11.5,0ZM81.4,106.3c3.2,0,5.8,2.6,5.8,5.8s-2.6,5.8-5.8,5.8-5.8-2.6-5.8-5.8,2.6-5.8,5.8-5.8Z"/>
      </g>
    </g>
  </g>
</svg>