<?xml version="1.0" encoding="UTF-8"?>
<svg xmlns="http://www.w3.org/2000/svg" version="1.1" xmlns:xlink="http://www.w3.org/1999/xlink" viewBox="0 0 59.4 59.4">
  <defs>
    <style>
      .cls-1 {
        fill: url(#linear-gradient);
      }
    </style>
    <linearGradient id="linear-gradient" x1="7.4" y1="395" x2="56.7" y2="444.3" gradientTransform="translate(0 -388)" gradientUnits="userSpaceOnUse">
      <stop offset="0" stop-color="#ff3b30"/>
      <stop offset=".5" stop-color="#ff643d"/>
      <stop offset="1" stop-color="#ff9500"/>
    </linearGradient>
  </defs>
  <!-- Generator: Adobe Illustrator 28.6.0, SVG Export Plug-In . SVG Version: 1.2.0 Build 709)  -->
  <g>
    <g id="Layer_1">
      <g id="Layer_1-2" data-name="Layer_1">
        <g id="artwork">
          <g>
            <path class="cls-1" d="M58.6,53.9c-3.6-6.9-10.1-5.2-13.5-3.5-.3,0-.5.3-.8.5h0c-6.9,3.7-16.3,4-25.6,0-7.8-3.3-14.3-9.2-18.6-15.9,2.1,1.6,4.4,2.9,6.9,4.1,10,4.6,19.9,4.2,27,0-10.1-7.7-18.5-17.8-24.8-25.9-1.2-1.5-2.4-2.9-3.3-4.5,7.7,7,19.8,15.9,24.2,18.3C21,17.7,13.1,6.1,12.9,5.7c14.6,14.7,28,23,28,23,.5.3.9.5,1.2.7.3-.7.5-1.5.7-2.1,2.4-8.5-.3-18.2-6.2-26.3,13.5,8.1,21.5,23.5,18.2,36.5,0,.3,0,.5-.3.9,6.8,8.4,4.9,17.3,4.1,15.5Z"/>
            <path d="M58.6,53.9c-3.6-6.9-10.1-5.2-13.5-3.5-.3,0-.5.3-.8.5h0c-6.9,3.7-16.3,4-25.6,0-7.8-3.3-14.3-9.2-18.6-15.9,2.1,1.6,4.4,2.9,6.9,4.1,10,4.6,19.9,4.2,27,0-10.1-7.7-18.5-17.8-24.8-25.9-1.2-1.5-2.4-2.9-3.3-4.5,7.7,7,19.8,15.9,24.2,18.3C21,17.7,13.1,6.1,12.9,5.7c14.6,14.7,28,23,28,23,.5.3.9.5,1.2.7.3-.7.5-1.5.7-2.1,2.4-8.5-.3-18.2-6.2-26.3,13.5,8.1,21.5,23.5,18.2,36.5,0,.3,0,.5-.3.9,6.8,8.4,4.9,17.3,4.1,15.5Z"/>
          </g>
        </g>
      </g>
    </g>
  </g>
</svg>