<?xml version="1.0" encoding="UTF-8"?>
<svg xmlns="http://www.w3.org/2000/svg" version="1.1" xmlns:xlink="http://www.w3.org/1999/xlink" viewBox="0 0 256 256">
  <defs>
    <style>
      .cls-1 {
        fill: url(#linear-gradient-2);
      }

      .cls-2 {
        fill: url(#linear-gradient-4);
      }

      .cls-3 {
        fill: url(#linear-gradient-3);
      }

      .cls-4 {
        fill: url(#linear-gradient);
      }
    </style>
    <linearGradient id="linear-gradient" x1="52.5" y1="78.1" x2="182.4" y2="208.1" gradientUnits="userSpaceOnUse">
      <stop offset="0" stop-color="#2f5496"/>
      <stop offset=".5" stop-color="#47848f"/>
      <stop offset="1" stop-color="#9feaf9"/>
    </linearGradient>
    <linearGradient id="linear-gradient-2" x1="91.9" y1="94.3" x2="166.5" y2="168.9" xlink:href="#linear-gradient"/>
    <linearGradient id="linear-gradient-3" x1="76.6" y1="101.2" x2="190.1" y2="214.8" xlink:href="#linear-gradient"/>
    <linearGradient id="linear-gradient-4" x1="96.9" y1="54.4" x2="158.3" y2="115.8" xlink:href="#linear-gradient"/>
  </defs>
  <!-- Generator: Adobe Illustrator 28.6.0, SVG Export Plug-In . SVG Version: 1.2.0 Build 709)  -->
  <g>
    <g id="Layer_1">
      <g>
        <path class="cls-4" d="M100.5,71.7c-26-4.7-46.6.2-54.8,14.4-6.1,10.6-4.4,24.6,4.2,39.6.7,1.3,2.3,1.8,3.6,1.1,1.3-.7,1.8-2.3,1.1-3.6,0,0,0,0,0,0-7.8-13.5-9.3-25.6-4.2-34.3,6.8-11.8,25.1-16.2,49.2-11.8,1.5.2,2.8-.7,3.1-2.2.2-1.4-.7-2.8-2.1-3.1ZM63.5,144c10.5,11.6,24.2,22.4,39.8,31.4,37.7,21.8,77.9,27.6,97.7,14.1,1.2-.8,1.6-2.5.8-3.7-.8-1.2-2.5-1.6-3.7-.8,0,0,0,0,0,0-17.7,12.1-55.9,6.5-92-14.3-15.1-8.7-28.3-19.2-38.5-30.4-1-1.1-2.7-1.2-3.8-.2-1.1,1-1.2,2.7-.2,3.8,0,0,0,0,0,0Z"/>
        <path class="cls-1" d="M194.6,140.8c17-20.1,23-40.3,14.8-54.5-6-10.4-18.7-15.9-35.6-16.1-1.5,0-2.7,1.2-2.7,2.7,0,1.4,1.2,2.6,2.6,2.7,15.2.2,26.2,4.9,31.1,13.5,6.8,11.8,1.5,29.8-14.2,48.4-1,1.1-.8,2.8.3,3.8,1.1,1,2.8.8,3.8-.3,0,0,0,0,0,0ZM150.9,72.6c-15.4,3.3-31.8,9.7-47.5,18.8-38.9,22.5-64.3,55.6-60.8,79.7.2,1.5,1.5,2.5,3,2.3,1.5-.2,2.5-1.5,2.3-3,0,0,0,0,0,0-3.1-21.3,20.9-52.8,58.2-74.3,15.3-8.8,31.1-15.1,46-18.2,1.4-.3,2.4-1.7,2.1-3.1s-1.7-2.4-3.1-2.1c0,0,0,0,0,0h0Z"/>
        <path class="cls-3" d="M87.8,187.8c8.9,24.9,23.5,40.2,39.8,40.2s23-8.1,31.6-22.5c.8-1.3.4-2.9-.9-3.7-1.3-.8-2.9-.4-3.7.9,0,0,0,0,0,0-7.7,12.9-17.3,19.9-27,19.9s-26.6-13.7-34.8-36.6c-.5-1.4-2-2.1-3.4-1.7-1.4.5-2.1,2-1.7,3.4,0,0,0,0,0,.1h0ZM169.1,182.9c4.6-14.7,7.1-31.7,7.1-49.4,0-44.2-15.5-82.3-37.5-92-1.4-.6-2.9,0-3.5,1.4-.6,1.3,0,2.8,1.3,3.4,19.6,8.7,34.3,44.9,34.3,87.2s-2.4,33.6-6.8,47.8c-.5,1.4.3,2.9,1.7,3.4s2.9-.3,3.4-1.7c0,0,0,0,0,0h0ZM219.3,180.3c0-7-5.7-12.8-12.8-12.8s-12.8,5.7-12.8,12.8,5.7,12.8,12.8,12.8,12.8-5.7,12.8-12.8ZM214,180.3c0,4.1-3.3,7.4-7.4,7.4s-7.4-3.3-7.4-7.4,3.3-7.4,7.4-7.4,7.4,3.3,7.4,7.4ZM48.5,193c7,0,12.8-5.7,12.8-12.8s-5.7-12.8-12.8-12.8-12.8,5.7-12.8,12.8,5.7,12.8,12.8,12.8ZM48.5,187.7c-4.1,0-7.4-3.3-7.4-7.4s3.3-7.4,7.4-7.4,7.4,3.3,7.4,7.4-3.3,7.4-7.4,7.4Z"/>
        <path class="cls-2" d="M127.6,54.4c7,0,12.8-5.7,12.8-12.8s-5.7-12.8-12.8-12.8-12.8,5.7-12.8,12.8,5.7,12.8,12.8,12.8ZM127.6,49.1c-4.1,0-7.4-3.3-7.4-7.4s3.3-7.4,7.4-7.4,7.4,3.3,7.4,7.4-3.3,7.4-7.4,7.4ZM129.6,142.5c-5,1.1-9.9-2.1-11-7.1-1.1-5,2.1-9.9,7.1-11,5-1.1,9.9,2.1,11,7.1,1.1,5-2.1,9.9-7.1,11Z"/>
      </g>
    </g>
  </g>
</svg>