<?xml version="1.0" encoding="UTF-8"?>
<svg xmlns="http://www.w3.org/2000/svg" version="1.1" xmlns:xlink="http://www.w3.org/1999/xlink" viewBox="0 0 384 384">
  <defs>
    <style>
      .cls-1 {
        fill: url(#linear-gradient-3);
      }

      .cls-1, .cls-2, .cls-3, .cls-4, .cls-5, .cls-6, .cls-7, .cls-8 {
        fill-rule: evenodd;
      }

      .cls-2 {
        fill: url(#linear-gradient-5);
      }

      .cls-3 {
        fill: url(#linear-gradient-2);
      }

      .cls-4 {
        fill: url(#linear-gradient-6);
      }

      .cls-5 {
        fill: url(#linear-gradient-4);
      }

      .cls-6 {
        fill: url(#linear-gradient-7);
      }

      .cls-7 {
        fill: url(#linear-gradient-8);
      }

      .cls-8 {
        fill: url(#linear-gradient);
      }
    </style>
    <linearGradient id="linear-gradient" x1="155.8" y1="270" x2="218.4" y2="332.7" gradientUnits="userSpaceOnUse">
      <stop offset="0" stop-color="#01476e"/>
      <stop offset=".5" stop-color="#0093e8"/>
      <stop offset="1" stop-color="#5bc0eb"/>
    </linearGradient>
    <linearGradient id="linear-gradient-2" x1="149.8" y1="229.1" x2="220.4" y2="299.7" xlink:href="#linear-gradient"/>
    <linearGradient id="linear-gradient-3" x1="205" y1="122.9" x2="255.8" y2="173.6" xlink:href="#linear-gradient"/>
    <linearGradient id="linear-gradient-4" x1="125.3" y1="268.7" x2="243.3" y2="386.6" xlink:href="#linear-gradient"/>
    <linearGradient id="linear-gradient-5" x1="135.8" y1="182.8" x2="221" y2="267.9" xlink:href="#linear-gradient"/>
    <linearGradient id="linear-gradient-6" x1="265" y1="220.5" x2="303.6" y2="259" xlink:href="#linear-gradient"/>
    <linearGradient id="linear-gradient-7" x1="170.2" y1="74.3" x2="248.7" y2="152.8" xlink:href="#linear-gradient"/>
    <linearGradient id="linear-gradient-8" x1="168.1" y1="297.6" x2="264.8" y2="394.2" xlink:href="#linear-gradient"/>
  </defs>
  <!-- Generator: Adobe Illustrator 28.6.0, SVG Export Plug-In . SVG Version: 1.2.0 Build 709)  -->
  <g>
    <g id="Layer_1">
      <g>
        <path class="cls-8" d="M146.2,287.3s-13.3,7.8,9.5,10.4c27.6,3.2,41.8,2.7,72.2-3.1,0,0,8,5,19.2,9.4-68.3,29.3-154.5-1.7-100.9-16.7h0Z"/>
        <path class="cls-3" d="M137.9,249.1s-14.9,11.1,7.9,13.4c29.5,3,52.8,3.3,93.2-4.5,0,0,5.6,5.7,14.3,8.7-82.5,24.1-174.5,1.9-115.4-17.7h0Z"/>
        <path class="cls-1" d="M208.2,184.4c16.8,19.4-4.4,36.8-4.4,36.8,0,0,42.7-22,23.1-49.7-18.3-25.7-32.4-38.5,43.7-82.6,0,0-119.4,29.8-62.4,95.5h0Z"/>
        <path class="cls-5" d="M298.5,315.6s9.9,8.1-10.9,14.4c-39.4,11.9-164,15.5-198.6.5-12.4-5.4,10.9-12.9,18.2-14.5,7.7-1.7,12-1.4,12-1.4-13.8-9.7-89.4,19.1-38.4,27.4,139.2,22.6,253.7-10.2,217.6-26.5h0Z"/>
        <path class="cls-2" d="M152.6,209.6s-63.4,15.1-22.4,20.5c17.3,2.3,51.7,1.8,83.9-.9,26.2-2.2,52.6-6.9,52.6-6.9,0,0-9.2,4-15.9,8.5-64.4,16.9-188.7,9-152.9-8.3,30.3-14.6,54.9-13,54.9-13h0Z"/>
        <path class="cls-4" d="M266.3,273.1c65.4-34,35.2-66.7,14.1-62.3-5.2,1.1-7.5,2-7.5,2,0,0,1.9-3,5.6-4.3,41.8-14.7,73.9,43.3-13.5,66.3,0,0,1-.9,1.3-1.7h0Z"/>
        <path class="cls-6" d="M226.9,17.6s36.2,36.3-34.4,92c-56.6,44.7-12.9,70.2,0,99.4-33.1-29.8-57.3-56.1-41-80.5,23.9-35.9,90-53.2,75.4-110.8h0Z"/>
        <path class="cls-7" d="M159.1,365.3c62.8,4,159.3-2.2,161.5-32,0,0-4.4,11.3-51.9,20.2-53.6,10.1-119.7,8.9-158.9,2.4,0,0,8,6.6,49.3,9.3h0Z"/>
      </g>
    </g>
  </g>
</svg>