<?xml version="1.0" encoding="UTF-8"?>
<svg xmlns="http://www.w3.org/2000/svg" version="1.1" xmlns:xlink="http://www.w3.org/1999/xlink" viewBox="0 0 630 630">
  <defs>
    <style>
      .cls-1 {
        fill: url(#linear-gradient);
      }
    </style>
    <linearGradient id="linear-gradient" x1="150.5" y1="159.6" x2="520.3" y2="529.4" gradientUnits="userSpaceOnUse">
      <stop offset="0" stop-color="gold"/>
      <stop offset=".5" stop-color="orange"/>
      <stop offset="1" stop-color="#ff8c00"/>
    </linearGradient>
  </defs>
  <!-- Generator: Adobe Illustrator 28.6.0, SVG Export Plug-In . SVG Version: 1.2.0 Build 709)  -->
  <g>
    <g id="Layer_1">
      <path class="cls-1" d="M383.1,395.7c17.4,28.4,40,49.2,80,49.2s55-16.8,55-40-22-37.6-59-53.8l-20.3-8.7c-58.5-24.9-97.4-56.1-97.4-122.1s46.3-107.1,118.7-107.1,88.6,17.9,115.3,64.9l-63.1,40.5c-13.9-24.9-28.9-34.7-52.2-34.7s-38.8,15.1-38.8,34.7,15.1,34.2,49.8,49.2l20.3,8.7c68.9,29.5,107.8,59.7,107.8,127.4s-57.3,113-134.3,113-123.9-35.9-147.7-82.9l65.9-38.3ZM96.7,402.7c12.7,22.6,24.3,41.7,52.2,41.7s43.4-10.4,43.4-50.9V117.8h81.1v276.8c0,83.9-49.2,122.1-121.1,122.1s-102.5-33.6-121.6-74l66-40Z"/>
    </g>
  </g>
</svg>