<?xml version="1.0" encoding="UTF-8"?>
<svg xmlns="http://www.w3.org/2000/svg" version="1.1" xmlns:xlink="http://www.w3.org/1999/xlink" viewBox="0 0 512 512">
  <defs>
    <style>
      .cls-1 {
        fill: url(#linear-gradient-2);
      }

      .cls-2 {
        fill: url(#linear-gradient);
      }
    </style>
    <linearGradient id="linear-gradient" x1="71.3" y1="256" x2="440.7" y2="256" gradientUnits="userSpaceOnUse">
      <stop offset="0" stop-color="#393"/>
      <stop offset=".5" stop-color="#3cbe3c"/>
      <stop offset="1" stop-color="#59d859"/>
    </linearGradient>
    <linearGradient id="linear-gradient-2" x1="222.4" y1="258.5" x2="379.1" y2="258.5" xlink:href="#linear-gradient"/>
  </defs>
  <!-- Generator: Adobe Illustrator 28.6.0, SVG Export Plug-In . SVG Version: 1.2.0 Build 709)  -->
  <g>
    <g id="Layer_1">
      <g>
        <path class="cls-2" d="M256.1,464.2c-5.6,0-11.1-1.5-16-4.3l-50.9-30.2c-7.6-4.3-3.9-5.8-1.4-6.6,10.1-3.6,12.2-4.4,23-10.5,1.1-.6,2.6-.4,3.8.3l39.1,23.2c1.4.8,3.4.8,4.7,0l152.6-88.1c1.4-.8,2.3-2.4,2.3-4.1v-176.1c0-1.8-.9-3.3-2.4-4.2l-152.6-88c-1.4-.8-3.3-.8-4.7,0l-152.5,88c-1.5.8-2.4,2.5-2.4,4.2v176.1c0,1.7.9,3.3,2.4,4.1l41.8,24.1c22.7,11.3,36.6-2,36.6-15.5v-173.8c0-2.5,1.9-4.4,4.4-4.4h19.3c2.4,0,4.4,1.9,4.4,4.4v173.9c0,30.3-16.5,47.6-45.2,47.6s-15.8,0-35.2-9.6l-40-23.1c-9.9-5.7-16-16.4-16-27.8v-176.1c0-11.5,6.1-22.2,16-27.8L240.1,51.9c9.7-5.5,22.5-5.5,32.1,0l152.6,88.2c9.9,5.7,16,16.4,16,27.8v176.1c0,11.4-6.2,22.1-16,27.8l-152.6,88.1c-4.9,2.8-10.4,4.3-16.1,4.3"/>
        <path class="cls-1" d="M303.2,342.9c-66.8,0-80.8-30.7-80.8-56.4s2-4.4,4.4-4.4h19.7c2.2,0,4,1.6,4.4,3.7,3,20.1,11.8,30.2,52.2,30.2s45.8-7.3,45.8-24.3-3.9-17.1-53.9-22c-41.8-4.1-67.6-13.3-67.6-46.8s26-49.1,69.5-49.1,73.1,17,76.1,53.4c.1,1.3-.3,2.5-1.2,3.4-.8.9-2,1.4-3.2,1.4h-19.8c-2.1,0-3.9-1.5-4.3-3.4-4.8-21.1-16.3-27.9-47.7-27.9s-39.2,12.2-39.2,21.4,4.8,14.4,52.2,20.6c46.9,6.2,69.2,15,69.2,48s-27.7,52.3-76.1,52.3"/>
      </g>
    </g>
  </g>
</svg>