<?xml version="1.0" encoding="UTF-8"?>
<svg xmlns="http://www.w3.org/2000/svg" version="1.1" xmlns:cc="http://creativecommons.org/ns#" xmlns:dc="http://purl.org/dc/elements/1.1/" xmlns:inkscape="http://www.inkscape.org/namespaces/inkscape" xmlns:rdf="http://www.w3.org/1999/02/22-rdf-syntax-ns#" xmlns:sodipodi="http://sodipodi.sourceforge.net/DTD/sodipodi-0.dtd" xmlns:svg="http://www.w3.org/2000/svg" xmlns:xlink="http://www.w3.org/1999/xlink" viewBox="0 0 92.1 101">
  <defs>
    <style>
      .cls-1 {
        fill: url(#linear-gradient-2);
      }

      .cls-2 {
        fill: url(#linear-gradient);
      }
    </style>
    <linearGradient id="linear-gradient" x1="227.3" y1="-48.2" x2="310.8" y2="-130.9" gradientTransform="translate(-127.9 -27.4) scale(.6 -.6)" gradientUnits="userSpaceOnUse">
      <stop offset="0" stop-color="#087cfa"/>
      <stop offset=".5" stop-color="#15a4c3"/>
      <stop offset="1" stop-color="#21d789"/>
    </linearGradient>
    <linearGradient id="linear-gradient-2" x1="308.4" y1="-129" x2="348.8" y2="-169" xlink:href="#linear-gradient"/>
  </defs>
  <!-- Generator: Adobe Illustrator 28.6.0, SVG Export Plug-In . SVG Version: 1.2.0 Build 709)  -->
  <g>
    <g id="svg2">
      <sodipodi:namedview id="base" width="210mm" height="40mm" bordercolor="#666666" borderopacity="1.0" gridtolerance="10.0" guidetolerance="10.0" inkscape:current-layer="svg2" inkscape:cx="91.558698" inkscape:cy="47.9926" inkscape:deskcolor="#d1d1d1" inkscape:document-units="pt" inkscape:pagecheckerboard="0" inkscape:pageopacity="0.0" inkscape:pageshadow="2" inkscape:showpageshadow="2" inkscape:window-height="2080" inkscape:window-maximized="0" inkscape:window-width="1976" inkscape:window-x="1092" inkscape:window-y="72" inkscape:zoom="2.1461642" objecttolerance="10.0" pagecolor="#ffffff" showgrid="false" units="mm"/>
      <path id="path1948" class="cls-2" d="M45.5,0c-3.8,0-7.4.3-10.6.9-9.4,1.7-11.1,5.1-11.1,11.5v8.5h22.2v2.8H15.4c-6.5,0-12.1,3.9-13.9,11.3-2,8.5-2.1,13.7,0,22.6,1.6,6.6,5.3,11.3,11.8,11.3h7.6v-10.1c0-7.3,6.3-13.8,13.9-13.8h22.2c6.2,0,11.1-5.1,11.1-11.3V12.5c0-6-5.1-10.5-11.1-11.5C53.2.3,49.3,0,45.5,0ZM33.5,6.8c2.3,0,4.2,1.9,4.2,4.2,0,2.3-1.9,4.2-4.2,4.2-2.3,0-4.2-1.9-4.2-4.2s1.9-4.2,4.2-4.2Z"/>
      <path id="path1950" class="cls-1" d="M70.9,23.7v9.9c0,7.6-6.5,14.1-13.9,14.1h-22.2c-6.1,0-11.1,5.2-11.1,11.3v21.1c0,6,5.2,9.6,11.1,11.3,7,2.1,13.8,2.4,22.2,0,5.6-1.6,11.1-4.9,11.1-11.3v-8.5h-22.2v-2.8h33.3c6.5,0,8.9-4.5,11.1-11.3,2.3-7,2.2-13.6,0-22.6-1.6-6.4-4.6-11.3-11.1-11.3h-8.3ZM58.5,77.3c2.3,0,4.2,1.9,4.2,4.2s-1.9,4.2-4.2,4.2-4.2-1.9-4.2-4.2,1.9-4.2,4.2-4.2Z"/>
    </g>
  </g>
</svg>