<?xml version="1.0" encoding="UTF-8"?>
<svg xmlns="http://www.w3.org/2000/svg" version="1.1" xmlns:xlink="http://www.w3.org/1999/xlink" viewBox="0 0 59.4 59.4">
  <defs>
    <style>
      .cls-1 {
        fill: url(#linear-gradient);
      }
    </style>
    <linearGradient id="linear-gradient" x1="11.6" y1="13.1" x2="48.7" y2="50.2" gradientUnits="userSpaceOnUse">
      <stop offset="0" stop-color="#ff3b30"/>
      <stop offset=".5" stop-color="#ff643d"/>
      <stop offset="1" stop-color="#ff9500"/>
    </linearGradient>
  </defs>
  <!-- Generator: Adobe Illustrator 28.6.0, SVG Export Plug-In . SVG Version: 1.2.0 Build 709)  -->
  <g>
    <g id="artwork">
      <g>
        <path class="cls-1" d="M50.1,48.4c-2.7-5.2-7.6-3.9-10.2-2.6-.2.1-.4.2-.6.4,0,0,0,0,0,0-5.2,2.8-12.3,3-19.3,0-5.9-2.5-10.8-6.9-14-12,1.6,1.2,3.3,2.2,5.2,3.1,7.5,3.5,15,3.2,20.3,0-7.6-5.8-13.9-13.4-18.7-19.5-.9-1.1-1.8-2.2-2.5-3.4,5.8,5.3,14.9,12,18.2,13.8-6.7-7.1-12.6-15.8-12.8-16.1,11,11.1,21.1,17.3,21.1,17.3.4.2.7.4.9.5.2-.5.4-1.1.5-1.6,1.8-6.4-.2-13.7-4.7-19.8,10.2,6.1,16.2,17.7,13.7,27.5,0,.2-.1.4-.2.7,5.1,6.3,3.7,13,3.1,11.7Z"/>
        <path class="cls-1" d="M50.1,48.4c-2.7-5.2-7.6-3.9-10.2-2.6-.2.1-.4.2-.6.4,0,0,0,0,0,0-5.2,2.8-12.3,3-19.3,0-5.9-2.5-10.8-6.9-14-12,1.6,1.2,3.3,2.2,5.2,3.1,7.5,3.5,15,3.2,20.3,0-7.6-5.8-13.9-13.4-18.7-19.5-.9-1.1-1.8-2.2-2.5-3.4,5.8,5.3,14.9,12,18.2,13.8-6.7-7.1-12.6-15.8-12.8-16.1,11,11.1,21.1,17.3,21.1,17.3.4.2.7.4.9.5.2-.5.4-1.1.5-1.6,1.8-6.4-.2-13.7-4.7-19.8,10.2,6.1,16.2,17.7,13.7,27.5,0,.2-.1.4-.2.7,5.1,6.3,3.7,13,3.1,11.7Z"/>
      </g>
    </g>
  </g>
</svg>