<?xml version="1.0" encoding="UTF-8"?>
<svg xmlns="http://www.w3.org/2000/svg" version="1.1" xmlns:xlink="http://www.w3.org/1999/xlink" viewBox="0 0 630 630">
  <defs>
    <style>
      .cls-1 {
        fill: url(#linear-gradient);
        fill-rule: evenodd;
      }
    </style>
    <linearGradient id="linear-gradient" x1="102.8" y1="63.7" x2="538.6" y2="499.5" gradientUnits="userSpaceOnUse">
      <stop offset="0" stop-color="#4ea8de"/>
      <stop offset=".5" stop-color="#2f92c9"/>
      <stop offset="1" stop-color="#007acc"/>
    </linearGradient>
  </defs>
  <!-- Generator: Adobe Illustrator 28.6.0, SVG Export Plug-In . SVG Version: 1.2.0 Build 709)  -->
  <g>
    <g id="Layer_1">
      <path class="cls-1" d="M352,401.3v80.9c13.1,6.7,28.7,11.8,46.6,15.2,17.9,3.4,36.9,5.1,56.7,5.1s37.8-1.9,55.2-5.6c17.4-3.7,32.7-9.8,45.9-18.3,13.1-8.5,23.5-19.6,31.2-33.4,7.7-13.7,11.5-30.7,11.5-50.9s-2.2-27.5-6.6-38.5-10.7-20.8-19-29.4c-8.3-8.6-18.2-16.3-29.7-23.1s-24.6-13.3-39.1-19.3c-10.6-4.4-20.1-8.6-28.6-12.8-8.4-4.1-15.6-8.3-21.5-12.6-5.9-4.3-10.4-8.8-13.6-13.6-3.2-4.8-4.8-10.2-4.8-16.3s1.4-10.6,4.3-15,6.9-8.3,12.1-11.5c5.2-3.2,11.6-5.7,19.2-7.5,7.6-1.8,16-2.7,25.3-2.7s13.9.5,21.4,1.5c7.5,1,15,2.6,22.6,4.7,7.6,2.1,15,4.8,22.1,8,7.2,3.2,13.8,6.9,19.8,11.1v-75.5c-12.3-4.7-25.7-8.2-40.3-10.5-14.6-2.3-31.3-3.4-50.2-3.4s-37.4,2.1-54.6,6.2c-17.2,4.1-32.3,10.6-45.4,19.3-13.1,8.8-23.4,19.9-31,33.5-7.6,13.6-11.4,29.8-11.4,48.6s7,44.6,20.9,61.6c13.9,17,35,31.4,63.3,43.2,11.1,4.5,21.5,9,31.1,13.4s17.9,8.9,24.9,13.6c7,4.7,12.5,9.9,16.6,15.4,4,5.6,6.1,11.9,6.1,18.9s-1.3,10.1-3.8,14.5-6.4,8.3-11.5,11.6-11.5,5.9-19.2,7.7c-7.7,1.9-16.6,2.8-26.9,2.8-17.5,0-34.9-3.1-52.1-9.2-17.2-6.1-33.1-15.4-47.8-27.7h0ZM216.1,202.1h103.7v-66.3H30.7v66.3h103.2v295.4h82.2V202.1Z"/>
    </g>
  </g>
</svg>